<svg width="369" height="24" viewBox="0 0 369 24" fill="none" xmlns="http://www.w3.org/2000/svg">
<path d="M309.738 6.608C311.114 6.608 312.25 6.94933 313.146 7.632C314.042 8.304 314.661 9.22667 315.002 10.4L313.466 10.4C313.178 9.65333 312.714 9.06133 312.074 8.624C311.434 8.176 310.65 7.952 309.722 7.952C308.986 7.952 308.325 8.13333 307.738 8.496C307.162 8.848 306.704 9.36 306.362 10.032C306.032 10.6933 305.866 11.472 305.866 12.368C305.866 13.2533 306.032 14.0267 306.362 14.688C306.704 15.3493 307.162 15.8613 307.738 16.224C308.325 16.576 308.986 16.752 309.722 16.752C310.65 16.752 311.434 16.5333 312.074 16.096C312.714 15.648 313.178 15.0507 313.466 14.304L315.002 14.304C314.661 15.4773 314.042 16.4053 313.146 17.088C312.25 17.76 311.114 18.096 309.738 18.096C308.682 18.096 307.749 17.856 306.938 17.376C306.128 16.8853 305.493 16.208 305.034 15.344C304.586 14.4693 304.362 13.4773 304.362 12.368C304.362 11.248 304.586 10.2507 305.034 9.376C305.493 8.50133 306.128 7.824 306.938 7.344C307.749 6.85333 308.682 6.608 309.738 6.608ZM320.933 9.104C321.776 9.104 322.528 9.28533 323.189 9.648C323.861 10.0107 324.384 10.5333 324.757 11.216C325.141 11.8987 325.333 12.6987 325.333 13.616C325.333 14.5333 325.141 15.3333 324.757 16.016C324.384 16.688 323.861 17.2053 323.189 17.568C322.528 17.9307 321.776 18.112 320.933 18.112C320.091 18.112 319.333 17.9307 318.661 17.568C318 17.2053 317.477 16.688 317.093 16.016C316.709 15.3333 316.517 14.5333 316.517 13.616C316.517 12.6987 316.709 11.8987 317.093 11.216C317.477 10.5333 318 10.0107 318.661 9.648C319.333 9.28533 320.091 9.104 320.933 9.104ZM320.933 10.384C320.411 10.384 319.925 10.5013 319.477 10.736C319.04 10.9707 318.683 11.3333 318.405 11.824C318.139 12.304 318.005 12.9013 318.005 13.616C318.005 14.32 318.139 14.9173 318.405 15.408C318.683 15.888 319.04 16.2453 319.477 16.48C319.925 16.7147 320.411 16.832 320.933 16.832C321.456 16.832 321.936 16.7147 322.373 16.48C322.821 16.2453 323.179 15.888 323.445 15.408C323.723 14.9173 323.861 14.32 323.861 13.616C323.861 12.9013 323.723 12.304 323.445 11.824C323.179 11.3333 322.821 10.9707 322.373 10.736C321.936 10.5013 321.456 10.384 320.933 10.384ZM331.855 9.072C332.879 9.072 333.705 9.40267 334.335 10.064C334.964 10.7147 335.279 11.6587 335.279 12.896L335.279 18L333.823 18L333.823 13.024C333.823 12.1493 333.599 11.4773 333.151 11.008C332.703 10.5387 332.095 10.304 331.327 10.304C330.527 10.304 329.887 10.5653 329.407 11.088C328.927 11.6 328.687 12.352 328.687 13.344L328.687 18L327.231 18L327.231 9.216L328.687 9.216L328.687 11.296C328.911 10.5813 329.305 10.032 329.871 9.648C330.447 9.264 331.108 9.072 331.855 9.072ZM341.704 16.72L341.704 18L340.616 18C339.72 18 339.048 17.7867 338.6 17.36C338.163 16.9333 337.944 16.2187 337.944 15.216L337.944 10.48L336.632 10.48L336.632 9.216L337.944 9.216L337.944 7.024L339.416 7.024L339.416 9.216L341.688 9.216L341.688 10.48L339.416 10.48L339.416 15.248C339.416 15.8133 339.517 16.2027 339.72 16.416C339.933 16.6187 340.296 16.72 340.808 16.72L341.704 16.72ZM347.081 9.104C347.934 9.104 348.654 9.31733 349.241 9.744C349.838 10.1707 350.254 10.7413 350.489 11.456L350.489 9.216L351.945 9.216L351.945 18L350.489 18L350.489 15.76C350.254 16.4747 349.838 17.0453 349.241 17.472C348.654 17.8987 347.934 18.112 347.081 18.112C346.302 18.112 345.609 17.9307 345.001 17.568C344.393 17.2053 343.913 16.688 343.561 16.016C343.219 15.3333 343.049 14.5333 343.049 13.616C343.049 12.6987 343.219 11.8987 343.561 11.216C343.913 10.5333 344.393 10.0107 345.001 9.648C345.609 9.28533 346.302 9.104 347.081 9.104ZM347.497 10.4C346.601 10.4 345.881 10.688 345.337 11.264C344.803 11.8293 344.537 12.6133 344.537 13.616C344.537 14.6187 344.803 15.408 345.337 15.984C345.881 16.5493 346.601 16.832 347.497 16.832C348.073 16.832 348.585 16.6987 349.033 16.432C349.491 16.1653 349.849 15.792 350.105 15.312C350.361 14.8213 350.489 14.256 350.489 13.616C350.489 12.976 350.361 12.4107 350.105 11.92C349.849 11.4293 349.491 11.056 349.033 10.8C348.585 10.5333 348.073 10.4 347.497 10.4ZM358.15 9.104C359.27 9.104 360.198 9.40267 360.934 10C361.67 10.5973 362.123 11.3973 362.294 12.4L360.758 12.4C360.651 11.7707 360.358 11.28 359.878 10.928C359.409 10.5653 358.822 10.384 358.118 10.384C357.606 10.384 357.137 10.5013 356.71 10.736C356.294 10.9707 355.958 11.3333 355.702 11.824C355.446 12.304 355.318 12.9013 355.318 13.616C355.318 14.3307 355.446 14.9333 355.702 15.424C355.958 15.904 356.294 16.2613 356.71 16.496C357.137 16.7307 357.606 16.848 358.118 16.848C358.822 16.848 359.409 16.6667 359.878 16.304C360.358 15.9413 360.651 15.4453 360.758 14.816L362.294 14.816C362.123 15.8293 361.67 16.6347 360.934 17.232C360.198 17.8187 359.27 18.112 358.15 18.112C357.307 18.112 356.561 17.9307 355.91 17.568C355.259 17.2053 354.747 16.688 354.374 16.016C354.011 15.3333 353.83 14.5333 353.83 13.616C353.83 12.6987 354.011 11.8987 354.374 11.216C354.747 10.5333 355.259 10.0107 355.91 9.648C356.561 9.28534 357.307 9.104 358.15 9.104ZM368.391 16.72L368.391 18L367.303 18C366.407 18 365.735 17.7867 365.287 17.36C364.85 16.9333 364.631 16.2187 364.631 15.216L364.631 10.48L363.319 10.48L363.319 9.216L364.631 9.216L364.631 7.024L366.103 7.024L366.103 9.216L368.375 9.216L368.375 10.48L366.103 10.48L366.103 15.248C366.103 15.8133 366.205 16.2027 366.407 16.416C366.621 16.6187 366.983 16.72 367.495 16.72L368.391 16.72Z" fill="#1A2236"/>
<path d="M213.01 15.3918L208.05 15.3918L207.106 17.9998L205.538 17.9998L209.714 6.92776L211.362 6.92776L215.522 17.9998L213.954 17.9998L213.01 15.3918ZM212.594 14.2558L210.53 8.55976L208.466 14.2558L212.594 14.2558ZM221.844 9.10376C222.623 9.10376 223.316 9.28509 223.924 9.64776C224.532 10.0104 225.007 10.5331 225.348 11.2158C225.7 11.8984 225.876 12.6984 225.876 13.6158C225.876 14.5331 225.7 15.3331 225.348 16.0158C225.007 16.6878 224.532 17.2051 223.924 17.5678C223.316 17.9304 222.623 18.1118 221.844 18.1118C220.991 18.1118 220.266 17.8984 219.668 17.4718C219.082 17.0344 218.676 16.4638 218.452 15.7598L218.452 17.9998L216.996 17.9998L216.996 6.15976L218.452 6.15976L218.452 11.4558C218.676 10.7518 219.082 10.1864 219.668 9.75976C220.266 9.32242 220.991 9.10376 221.844 9.10376ZM221.428 10.3998C220.863 10.3998 220.351 10.5331 219.892 10.7998C219.434 11.0558 219.076 11.4291 218.82 11.9198C218.564 12.4104 218.436 12.9758 218.436 13.6158C218.436 14.2558 218.564 14.8211 218.82 15.3118C219.076 15.7918 219.434 16.1651 219.892 16.4318C220.351 16.6984 220.863 16.8318 221.428 16.8318C222.335 16.8318 223.055 16.5491 223.588 15.9838C224.132 15.4078 224.404 14.6184 224.404 13.6158C224.404 12.6131 224.132 11.8291 223.588 11.2638C223.055 10.6878 222.335 10.3998 221.428 10.3998ZM231.761 9.10376C232.604 9.10376 233.356 9.28509 234.017 9.64776C234.689 10.0104 235.212 10.5331 235.585 11.2158C235.969 11.8984 236.161 12.6984 236.161 13.6158C236.161 14.5331 235.969 15.3331 235.585 16.0158C235.212 16.6878 234.689 17.2051 234.017 17.5678C233.356 17.9304 232.604 18.1118 231.761 18.1118C230.919 18.1118 230.161 17.9304 229.489 17.5678C228.828 17.2051 228.305 16.6878 227.921 16.0158C227.537 15.3331 227.345 14.5331 227.345 13.6158C227.345 12.6984 227.537 11.8984 227.921 11.2158C228.305 10.5331 228.828 10.0104 229.489 9.64776C230.161 9.28509 230.919 9.10376 231.761 9.10376ZM231.761 10.3838C231.239 10.3838 230.753 10.5011 230.305 10.7358C229.868 10.9704 229.511 11.3331 229.233 11.8238C228.967 12.3038 228.833 12.9011 228.833 13.6158C228.833 14.3198 228.967 14.9171 229.233 15.4078C229.511 15.8878 229.868 16.2451 230.305 16.4798C230.753 16.7144 231.239 16.8318 231.761 16.8318C232.284 16.8318 232.764 16.7144 233.201 16.4798C233.649 16.2451 234.007 15.8878 234.273 15.4078C234.551 14.9171 234.689 14.3198 234.689 13.6158C234.689 12.9011 234.551 12.3038 234.273 11.8238C234.007 11.3331 233.649 10.9704 233.201 10.7358C232.764 10.5011 232.284 10.3838 231.761 10.3838ZM245.867 9.21576L245.867 17.9998L244.411 17.9998L244.411 15.9358C244.187 16.6504 243.787 17.1998 243.211 17.5838C242.645 17.9571 241.984 18.1438 241.227 18.1438C240.213 18.1438 239.392 17.8184 238.763 17.1678C238.133 16.5064 237.819 15.5624 237.819 14.3358L237.819 9.21576L239.275 9.21576L239.275 14.1918C239.275 15.0664 239.499 15.7438 239.947 16.2238C240.395 16.6931 241.003 16.9278 241.771 16.9278C242.571 16.9278 243.211 16.6718 243.691 16.1598C244.171 15.6371 244.411 14.8798 244.411 13.8878L244.411 9.21576L245.867 9.21576ZM252.391 16.7198L252.391 17.9998L251.303 17.9998C250.407 17.9998 249.735 17.7864 249.287 17.3598C248.85 16.9331 248.631 16.2184 248.631 15.2158L248.631 10.4798L247.319 10.4798L247.319 9.21576L248.631 9.21576L248.631 7.02376L250.103 7.02376L250.103 9.21576L252.375 9.21576L252.375 10.4798L250.103 10.4798L250.103 15.2478C250.103 15.8131 250.205 16.2024 250.407 16.4158C250.621 16.6184 250.983 16.7198 251.495 16.7198L252.391 16.7198Z" fill="#1A2236"/>
<path d="M9.98037 6.71976L9.98037 17.9998L8.50837 17.9998L8.50837 12.7838L2.78037 12.7838L2.78037 17.9998L1.32437 17.9998L1.32437 6.71976L2.78037 6.71976L2.78037 11.5998L8.50837 11.5998L8.50837 6.71976L9.98037 6.71976ZM20.3887 13.1198C20.3887 13.4291 20.3674 13.6958 20.3247 13.9198L13.3007 13.9198C13.3327 14.9224 13.6154 15.6744 14.1487 16.1758C14.6927 16.6771 15.3541 16.9278 16.1327 16.9278C16.8367 16.9278 17.4234 16.7518 17.8927 16.3998C18.3727 16.0371 18.6661 15.5571 18.7727 14.9598L20.3247 14.9598C20.2181 15.5678 19.9781 16.1118 19.6047 16.5918C19.2421 17.0718 18.7674 17.4451 18.1807 17.7118C17.5941 17.9784 16.9327 18.1118 16.1967 18.1118C15.3541 18.1118 14.6074 17.9304 13.9567 17.5678C13.3061 17.2051 12.7941 16.6878 12.4207 16.0158C12.0581 15.3331 11.8767 14.5331 11.8767 13.6158C11.8767 12.6984 12.0581 11.8984 12.4207 11.2158C12.7941 10.5331 13.3061 10.0104 13.9567 9.64776C14.6074 9.28509 15.3541 9.10376 16.1967 9.10376C17.0501 9.10376 17.7914 9.28509 18.4207 9.64776C19.0607 10.0104 19.5461 10.4958 19.8767 11.1038C20.2181 11.7118 20.3887 12.3838 20.3887 13.1198ZM18.9167 13.2158C18.9487 12.5651 18.8421 12.0211 18.5967 11.5838C18.3514 11.1464 18.0154 10.8211 17.5887 10.6078C17.1621 10.3944 16.6981 10.2878 16.1967 10.2878C15.3967 10.2878 14.7247 10.5384 14.1807 11.0398C13.6367 11.5304 13.3434 12.2558 13.3007 13.2158L18.9167 13.2158ZM23.7491 6.15976L23.7491 17.9998L22.2931 17.9998L22.2931 6.15976L23.7491 6.15976ZM27.546 6.15976L27.546 17.9998L26.09 17.9998L26.09 6.15976L27.546 6.15976ZM33.8709 9.10376C34.7135 9.10376 35.4655 9.28509 36.1269 9.64776C36.7989 10.0104 37.3215 10.5331 37.6949 11.2158C38.0789 11.8984 38.2709 12.6984 38.2709 13.6158C38.2709 14.5331 38.0789 15.3331 37.6949 16.0158C37.3215 16.6878 36.7989 17.2051 36.1269 17.5678C35.4655 17.9304 34.7135 18.1118 33.8709 18.1118C33.0282 18.1118 32.2709 17.9304 31.5989 17.5678C30.9375 17.2051 30.4149 16.6878 30.0309 16.0158C29.6469 15.3331 29.4549 14.5331 29.4549 13.6158C29.4549 12.6984 29.6469 11.8984 30.0309 11.2158C30.4149 10.5331 30.9375 10.0104 31.5989 9.64776C32.2709 9.28509 33.0282 9.10376 33.8709 9.10376ZM33.8709 10.3838C33.3482 10.3838 32.8629 10.5011 32.4149 10.7358C31.9775 10.9704 31.6202 11.3331 31.3429 11.8238C31.0762 12.3038 30.9429 12.9011 30.9429 13.6158C30.9429 14.3198 31.0762 14.9171 31.3429 15.4078C31.6202 15.8878 31.9775 16.2451 32.4149 16.4798C32.8629 16.7144 33.3482 16.8318 33.8709 16.8318C34.3935 16.8318 34.8735 16.7144 35.3109 16.4798C35.7589 16.2451 36.1162 15.8878 36.3829 15.4078C36.6602 14.9171 36.7989 14.3198 36.7989 13.6158C36.7989 12.9011 36.6602 12.3038 36.3829 11.8238C36.1162 11.3331 35.7589 10.9704 35.3109 10.7358C34.8735 10.5011 34.3935 10.3838 33.8709 10.3838Z" fill="#1A2236"/>
<path d="M92.4679 13.4558L92.4679 17.9998L91.0119 17.9998L91.0119 6.71976L94.5959 6.71976C95.8865 6.71976 96.8519 7.02376 97.4919 7.63176C98.1319 8.22909 98.4519 9.05042 98.4519 10.0958C98.4519 11.1518 98.1212 11.9784 97.4599 12.5758C96.7985 13.1624 95.8439 13.4558 94.5959 13.4558L92.4679 13.4558ZM94.4679 12.2398C95.3532 12.2398 95.9879 12.0531 96.3719 11.6798C96.7665 11.3064 96.9639 10.7784 96.9639 10.0958C96.9639 9.39176 96.7665 8.85842 96.3719 8.49576C95.9879 8.12242 95.3532 7.93576 94.4679 7.93576L92.4679 7.93576L92.4679 12.2398L94.4679 12.2398ZM104.136 9.10376C104.979 9.10376 105.731 9.28509 106.392 9.64776C107.064 10.0104 107.587 10.5331 107.96 11.2158C108.344 11.8984 108.536 12.6984 108.536 13.6158C108.536 14.5331 108.344 15.3331 107.96 16.0158C107.587 16.6878 107.064 17.2051 106.392 17.5678C105.731 17.9304 104.979 18.1118 104.136 18.1118C103.294 18.1118 102.536 17.9304 101.864 17.5678C101.203 17.2051 100.68 16.6878 100.296 16.0158C99.9125 15.3331 99.7205 14.5331 99.7205 13.6158C99.7205 12.6984 99.9125 11.8984 100.296 11.2158C100.68 10.5331 101.203 10.0104 101.864 9.64776C102.536 9.28509 103.294 9.10376 104.136 9.10376ZM104.136 10.3838C103.614 10.3838 103.128 10.5011 102.68 10.7358C102.243 10.9704 101.886 11.3331 101.608 11.8238C101.342 12.3038 101.208 12.9011 101.208 13.6158C101.208 14.3198 101.342 14.9171 101.608 15.4078C101.886 15.8878 102.243 16.2451 102.68 16.4798C103.128 16.7144 103.614 16.8318 104.136 16.8318C104.659 16.8318 105.139 16.7144 105.576 16.4798C106.024 16.2451 106.382 15.8878 106.648 15.4078C106.926 14.9171 107.064 14.3198 107.064 13.6158C107.064 12.9011 106.926 12.3038 106.648 11.8238C106.382 11.3331 106.024 10.9704 105.576 10.7358C105.139 10.5011 104.659 10.3838 104.136 10.3838ZM111.89 10.9918C112.178 10.3838 112.599 9.91442 113.154 9.58376C113.708 9.24242 114.37 9.07176 115.138 9.07176L115.138 10.6558L114.69 10.6558C113.868 10.6558 113.196 10.8691 112.674 11.2958C112.151 11.7118 111.89 12.4051 111.89 13.3758L111.89 17.9998L110.434 17.9998L110.434 9.21576L111.89 9.21576L111.89 10.9918ZM120.766 16.7198L120.766 17.9998L119.678 17.9998C118.782 17.9998 118.11 17.7864 117.662 17.3598C117.225 16.9331 117.006 16.2184 117.006 15.2158L117.006 10.4798L115.694 10.4798L115.694 9.21576L117.006 9.21576L117.006 7.02376L118.478 7.02376L118.478 9.21576L120.75 9.21576L120.75 10.4798L118.478 10.4798L118.478 15.2478C118.478 15.8131 118.58 16.2024 118.782 16.4158C118.996 16.6184 119.358 16.7198 119.87 16.7198L120.766 16.7198ZM126.431 7.13576C125.652 7.12509 125.108 7.25842 124.799 7.53576C124.5 7.81309 124.351 8.29309 124.351 8.97576L124.351 9.21576L126.431 9.21576L126.431 10.4958L124.351 10.4958L124.351 17.9998L122.895 17.9998L122.895 10.4958L121.631 10.4958L121.631 9.21576L122.895 9.21576L122.895 8.86376C122.895 6.76242 124.074 5.75976 126.431 5.85576L126.431 7.13576ZM131.996 9.10376C132.839 9.10376 133.591 9.28509 134.252 9.64776C134.924 10.0104 135.447 10.5331 135.82 11.2158C136.204 11.8984 136.396 12.6984 136.396 13.6158C136.396 14.5331 136.204 15.3331 135.82 16.0158C135.447 16.6878 134.924 17.2051 134.252 17.5678C133.591 17.9304 132.839 18.1118 131.996 18.1118C131.153 18.1118 130.396 17.9304 129.724 17.5678C129.063 17.2051 128.54 16.6878 128.156 16.0158C127.772 15.3331 127.58 14.5331 127.58 13.6158C127.58 12.6984 127.772 11.8984 128.156 11.2158C128.54 10.5331 129.063 10.0104 129.724 9.64776C130.396 9.28509 131.153 9.10376 131.996 9.10376ZM131.996 10.3838C131.473 10.3838 130.988 10.5011 130.54 10.7358C130.103 10.9704 129.745 11.3331 129.468 11.8238C129.201 12.3038 129.068 12.9011 129.068 13.6158C129.068 14.3198 129.201 14.9171 129.468 15.4078C129.745 15.8878 130.103 16.2451 130.54 16.4798C130.988 16.7144 131.473 16.8318 131.996 16.8318C132.519 16.8318 132.999 16.7144 133.436 16.4798C133.884 16.2451 134.241 15.8878 134.508 15.4078C134.785 14.9171 134.924 14.3198 134.924 13.6158C134.924 12.9011 134.785 12.3038 134.508 11.8238C134.241 11.3331 133.884 10.9704 133.436 10.7358C132.999 10.5011 132.519 10.3838 131.996 10.3838ZM139.749 6.15976L139.749 17.9998L138.293 17.9998L138.293 6.15976L139.749 6.15976ZM141.834 6.63976C141.834 6.37309 141.925 6.15976 142.106 5.99976C142.287 5.82909 142.527 5.74376 142.826 5.74376C143.125 5.74376 143.365 5.82909 143.546 5.99976C143.727 6.15976 143.818 6.37309 143.818 6.63976C143.818 6.90642 143.727 7.12509 143.546 7.29576C143.365 7.45576 143.125 7.53576 142.826 7.53576C142.527 7.53576 142.287 7.45576 142.106 7.29576C141.925 7.12509 141.834 6.90642 141.834 6.63976ZM143.546 9.21576L143.546 17.9998L142.09 17.9998L142.09 9.21576L143.546 9.21576ZM149.871 9.10376C150.714 9.10376 151.466 9.28509 152.127 9.64776C152.799 10.0104 153.322 10.5331 153.695 11.2158C154.079 11.8984 154.271 12.6984 154.271 13.6158C154.271 14.5331 154.079 15.3331 153.695 16.0158C153.322 16.6878 152.799 17.2051 152.127 17.5678C151.466 17.9304 150.714 18.1118 149.871 18.1118C149.028 18.1118 148.271 17.9304 147.599 17.5678C146.938 17.2051 146.415 16.6878 146.031 16.0158C145.647 15.3331 145.455 14.5331 145.455 13.6158C145.455 12.6984 145.647 11.8984 146.031 11.2158C146.415 10.5331 146.938 10.0104 147.599 9.64776C148.271 9.28509 149.028 9.10376 149.871 9.10376ZM149.871 10.3838C149.348 10.3838 148.863 10.5011 148.415 10.7358C147.978 10.9704 147.62 11.3331 147.343 11.8238C147.076 12.3038 146.943 12.9011 146.943 13.6158C146.943 14.3198 147.076 14.9171 147.343 15.4078C147.62 15.8878 147.978 16.2451 148.415 16.4798C148.863 16.7144 149.348 16.8318 149.871 16.8318C150.394 16.8318 150.874 16.7144 151.311 16.4798C151.759 16.2451 152.116 15.8878 152.383 15.4078C152.66 14.9171 152.799 14.3198 152.799 13.6158C152.799 12.9011 152.66 12.3038 152.383 11.8238C152.116 11.3331 151.759 10.9704 151.311 10.7358C150.874 10.5011 150.394 10.3838 149.871 10.3838Z" fill="#1A2236"/>
</svg>
